<svg id="visual" viewBox="0 0 900 600" width="900" height="600" xmlns="http://www.w3.org/2000/svg" xmlns:xlink="http://www.w3.org/1999/xlink" version="1.1"><path d="M0 91L9.3 93C18.7 95 37.3 99 56.2 101C75 103 94 103 112.8 110C131.7 117 150.3 131 169 135C187.7 139 206.3 133 225 114C243.7 95 262.3 63 281.2 51C300 39 319 47 337.8 60C356.7 73 375.3 91 394 89C412.7 87 431.3 65 450 70C468.7 75 487.3 107 506.2 117C525 127 544 115 562.8 108C581.7 101 600.3 99 619 102C637.7 105 656.3 113 675 118C693.7 123 712.3 125 731.2 110C750 95 769 63 787.8 63C806.7 63 825.3 95 844 99C862.7 103 881.3 79 890.7 67L900 55L900 0L890.7 0C881.3 0 862.7 0 844 0C825.3 0 806.7 0 787.8 0C769 0 750 0 731.2 0C712.3 0 693.7 0 675 0C656.3 0 637.7 0 619 0C600.3 0 581.7 0 562.8 0C544 0 525 0 506.2 0C487.3 0 468.7 0 450 0C431.3 0 412.7 0 394 0C375.3 0 356.7 0 337.8 0C319 0 300 0 281.2 0C262.3 0 243.7 0 225 0C206.3 0 187.7 0 169 0C150.3 0 131.7 0 112.8 0C94 0 75 0 56.2 0C37.3 0 18.7 0 9.3 0L0 0Z" fill="#6198ff"></path><path d="M0 109L9.3 113C18.7 117 37.3 125 56.2 137C75 149 94 165 112.8 177C131.7 189 150.3 197 169 196C187.7 195 206.3 185 225 164C243.7 143 262.3 111 281.2 94C300 77 319 75 337.8 89C356.7 103 375.3 133 394 139C412.7 145 431.3 127 450 127C468.7 127 487.3 145 506.2 153C525 161 544 159 562.8 151C581.7 143 600.3 129 619 130C637.7 131 656.3 147 675 152C693.7 157 712.3 151 731.2 134C750 117 769 89 787.8 96C806.7 103 825.3 145 844 151C862.7 157 881.3 127 890.7 112L900 97L900 53L890.7 65C881.3 77 862.7 101 844 97C825.3 93 806.7 61 787.8 61C769 61 750 93 731.2 108C712.3 123 693.7 121 675 116C656.3 111 637.7 103 619 100C600.3 97 581.7 99 562.8 106C544 113 525 125 506.2 115C487.3 105 468.7 73 450 68C431.3 63 412.7 85 394 87C375.3 89 356.7 71 337.8 58C319 45 300 37 281.2 49C262.3 61 243.7 93 225 112C206.3 131 187.7 137 169 133C150.3 129 131.7 115 112.8 108C94 101 75 101 56.2 99C37.3 97 18.7 93 9.3 91L0 89Z" fill="#4f8cff"></path><path d="M0 133L9.3 142C18.7 151 37.3 169 56.2 180C75 191 94 195 112.8 207C131.7 219 150.3 239 169 241C187.7 243 206.3 227 225 206C243.7 185 262.3 159 281.2 142C300 125 319 117 337.8 130C356.7 143 375.3 177 394 182C412.7 187 431.3 163 450 160C468.7 157 487.3 175 506.2 187C525 199 544 205 562.8 197C581.7 189 600.3 167 619 168C637.7 169 656.3 193 675 195C693.7 197 712.3 177 731.2 158C750 139 769 121 787.8 129C806.7 137 825.3 171 844 174C862.7 177 881.3 149 890.7 135L900 121L900 95L890.7 110C881.3 125 862.7 155 844 149C825.3 143 806.7 101 787.8 94C769 87 750 115 731.2 132C712.3 149 693.7 155 675 150C656.3 145 637.7 129 619 128C600.3 127 581.7 141 562.8 149C544 157 525 159 506.2 151C487.3 143 468.7 125 450 125C431.3 125 412.7 143 394 137C375.3 131 356.7 101 337.8 87C319 73 300 75 281.2 92C262.3 109 243.7 141 225 162C206.3 183 187.7 193 169 194C150.3 195 131.7 187 112.8 175C94 163 75 147 56.2 135C37.3 123 18.7 115 9.3 111L0 107Z" fill="#3c80ff"></path><path d="M0 223L9.3 247C18.7 271 37.3 319 56.2 343C75 367 94 367 112.8 362C131.7 357 150.3 347 169 329C187.7 311 206.3 285 225 278C243.7 271 262.3 283 281.2 290C300 297 319 299 337.8 297C356.7 295 375.3 289 394 289C412.7 289 431.3 295 450 289C468.7 283 487.3 265 506.2 269C525 273 544 299 562.8 290C581.7 281 600.3 237 619 245C637.7 253 656.3 313 675 325C693.7 337 712.3 301 731.2 278C750 255 769 245 787.8 256C806.7 267 825.3 299 844 299C862.7 299 881.3 267 890.7 251L900 235L900 119L890.7 133C881.3 147 862.7 175 844 172C825.3 169 806.7 135 787.8 127C769 119 750 137 731.2 156C712.3 175 693.7 195 675 193C656.3 191 637.7 167 619 166C600.3 165 581.7 187 562.8 195C544 203 525 197 506.2 185C487.3 173 468.7 155 450 158C431.3 161 412.7 185 394 180C375.3 175 356.7 141 337.8 128C319 115 300 123 281.2 140C262.3 157 243.7 183 225 204C206.3 225 187.7 241 169 239C150.3 237 131.7 217 112.8 205C94 193 75 189 56.2 178C37.3 167 18.7 149 9.3 140L0 131Z" fill="#2573ff"></path><path d="M0 283L9.3 307C18.7 331 37.3 379 56.2 406C75 433 94 439 112.8 431C131.7 423 150.3 401 169 379C187.7 357 206.3 335 225 333C243.7 331 262.3 349 281.2 362C300 375 319 383 337.8 380C356.7 377 375.3 363 394 359C412.7 355 431.3 361 450 351C468.7 341 487.3 315 506.2 311C525 307 544 325 562.8 325C581.7 325 600.3 307 619 321C637.7 335 656.3 381 675 384C693.7 387 712.3 347 731.2 328C750 309 769 311 787.8 322C806.7 333 825.3 353 844 345C862.7 337 881.3 301 890.7 283L900 265L900 233L890.7 249C881.3 265 862.7 297 844 297C825.3 297 806.7 265 787.8 254C769 243 750 253 731.2 276C712.3 299 693.7 335 675 323C656.3 311 637.7 251 619 243C600.3 235 581.7 279 562.8 288C544 297 525 271 506.2 267C487.3 263 468.7 281 450 287C431.3 293 412.7 287 394 287C375.3 287 356.7 293 337.8 295C319 297 300 295 281.2 288C262.3 281 243.7 269 225 276C206.3 283 187.7 309 169 327C150.3 345 131.7 355 112.8 360C94 365 75 365 56.2 341C37.3 317 18.7 269 9.3 245L0 221Z" fill="#0066ff"></path><path d="M0 439L9.3 448C18.7 457 37.3 475 56.2 486C75 497 94 501 112.8 510C131.7 519 150.3 533 169 534C187.7 535 206.3 523 225 508C243.7 493 262.3 475 281.2 472C300 469 319 481 337.8 482C356.7 483 375.3 473 394 468C412.7 463 431.3 463 450 467C468.7 471 487.3 479 506.2 479C525 479 544 471 562.8 462C581.7 453 600.3 443 619 445C637.7 447 656.3 461 675 477C693.7 493 712.3 511 731.2 515C750 519 769 509 787.8 498C806.7 487 825.3 475 844 473C862.7 471 881.3 479 890.7 483L900 487L900 263L890.7 281C881.3 299 862.7 335 844 343C825.3 351 806.7 331 787.8 320C769 309 750 307 731.2 326C712.3 345 693.7 385 675 382C656.3 379 637.7 333 619 319C600.3 305 581.7 323 562.8 323C544 323 525 305 506.2 309C487.3 313 468.7 339 450 349C431.3 359 412.7 353 394 357C375.3 361 356.7 375 337.8 378C319 381 300 373 281.2 360C262.3 347 243.7 329 225 331C206.3 333 187.7 355 169 377C150.3 399 131.7 421 112.8 429C94 437 75 431 56.2 404C37.3 377 18.7 329 9.3 305L0 281Z" fill="#005fee"></path><path d="M0 529L9.3 532C18.7 535 37.3 541 56.2 544C75 547 94 547 112.8 551C131.7 555 150.3 563 169 561C187.7 559 206.3 547 225 536C243.7 525 262.3 515 281.2 513C300 511 319 517 337.8 522C356.7 527 375.3 531 394 535C412.7 539 431.3 543 450 539C468.7 535 487.3 523 506.2 521C525 519 544 527 562.8 527C581.7 527 600.3 519 619 517C637.7 515 656.3 519 675 528C693.7 537 712.3 551 731.2 556C750 561 769 557 787.8 547C806.7 537 825.3 521 844 515C862.7 509 881.3 513 890.7 515L900 517L900 485L890.7 481C881.3 477 862.7 469 844 471C825.3 473 806.7 485 787.8 496C769 507 750 517 731.2 513C712.3 509 693.7 491 675 475C656.3 459 637.7 445 619 443C600.3 441 581.7 451 562.8 460C544 469 525 477 506.2 477C487.3 477 468.7 469 450 465C431.3 461 412.7 461 394 466C375.3 471 356.7 481 337.8 480C319 479 300 467 281.2 470C262.3 473 243.7 491 225 506C206.3 521 187.7 533 169 532C150.3 531 131.7 517 112.8 508C94 499 75 495 56.2 484C37.3 473 18.7 455 9.3 446L0 437Z" fill="#0059dd"></path><path d="M0 571L9.3 570C18.7 569 37.3 567 56.2 567C75 567 94 569 112.8 573C131.7 577 150.3 583 169 581C187.7 579 206.3 569 225 565C243.7 561 262.3 563 281.2 563C300 563 319 561 337.8 561C356.7 561 375.3 563 394 567C412.7 571 431.3 577 450 574C468.7 571 487.3 559 506.2 558C525 557 544 567 562.8 572C581.7 577 600.3 577 619 572C637.7 567 656.3 557 675 559C693.7 561 712.3 575 731.2 580C750 585 769 581 787.8 573C806.7 565 825.3 553 844 552C862.7 551 881.3 561 890.7 566L900 571L900 515L890.7 513C881.3 511 862.7 507 844 513C825.3 519 806.7 535 787.8 545C769 555 750 559 731.2 554C712.3 549 693.7 535 675 526C656.3 517 637.7 513 619 515C600.3 517 581.7 525 562.8 525C544 525 525 517 506.2 519C487.3 521 468.7 533 450 537C431.3 541 412.7 537 394 533C375.3 529 356.7 525 337.8 520C319 515 300 509 281.2 511C262.3 513 243.7 523 225 534C206.3 545 187.7 557 169 559C150.3 561 131.7 553 112.8 549C94 545 75 545 56.2 542C37.3 539 18.7 533 9.3 530L0 527Z" fill="#0052cc"></path><path d="M0 601L9.3 601C18.7 601 37.3 601 56.2 601C75 601 94 601 112.8 601C131.7 601 150.3 601 169 601C187.7 601 206.3 601 225 601C243.7 601 262.3 601 281.2 601C300 601 319 601 337.8 601C356.7 601 375.3 601 394 601C412.7 601 431.3 601 450 601C468.7 601 487.3 601 506.2 601C525 601 544 601 562.8 601C581.7 601 600.3 601 619 601C637.7 601 656.3 601 675 601C693.7 601 712.3 601 731.2 601C750 601 769 601 787.8 601C806.7 601 825.3 601 844 601C862.7 601 881.3 601 890.7 601L900 601L900 569L890.7 564C881.3 559 862.7 549 844 550C825.3 551 806.7 563 787.8 571C769 579 750 583 731.2 578C712.3 573 693.7 559 675 557C656.3 555 637.7 565 619 570C600.3 575 581.7 575 562.8 570C544 565 525 555 506.2 556C487.3 557 468.7 569 450 572C431.3 575 412.7 569 394 565C375.3 561 356.7 559 337.8 559C319 559 300 561 281.2 561C262.3 561 243.7 559 225 563C206.3 567 187.7 577 169 579C150.3 581 131.7 575 112.8 571C94 567 75 565 56.2 565C37.3 565 18.7 567 9.3 568L0 569Z" fill="#004cbb"></path></svg>